<svg xmlns="http://www.w3.org/2000/svg" width="101.996" height="102"><defs><radialGradient id="a" cx="13.551" cy="102.482" r="133.147" gradientUnits="userSpaceOnUse"><stop offset=".09" stop-color="#fa8f21"/><stop offset=".78" stop-color="#d82d7e"/></radialGradient><radialGradient id="b" cx="61.859" cy="107.051" r="104.938" gradientUnits="userSpaceOnUse"><stop offset=".64" stop-color="#8c3aaa" stop-opacity="0"/><stop offset="1" stop-color="#8c3aaa"/></radialGradient></defs><path fill="url(#a)" d="M34 51a17 17 0 1 1 17 17 17 17 0 0 1-17-17m-9.191 0A26.188 26.188 0 1 0 51 24.812 26.187 26.187 0 0 0 24.812 51M72.1 23.774a6.12 6.12 0 1 0 6.122-6.118 6.123 6.123 0 0 0-6.12 6.118M30.4 92.513a28.2 28.2 0 0 1-9.471-1.754 15.85 15.85 0 0 1-5.866-3.815 15.7 15.7 0 0 1-3.815-5.862 28.2 28.2 0 0 1-1.758-9.471c-.247-5.376-.3-6.991-.3-20.61s.053-15.23.3-20.61a28.4 28.4 0 0 1 1.754-9.471 15.85 15.85 0 0 1 3.815-5.866 15.7 15.7 0 0 1 5.866-3.815A28.2 28.2 0 0 1 30.4 9.484c5.376-.247 6.991-.3 20.6-.3s15.23.053 20.61.3a28.4 28.4 0 0 1 9.471 1.754 15.8 15.8 0 0 1 5.866 3.815 15.8 15.8 0 0 1 3.815 5.866 28.2 28.2 0 0 1 1.754 9.471c.247 5.38.3 6.991.3 20.61s-.049 15.23-.3 20.61a28.3 28.3 0 0 1-1.754 9.471 16.89 16.89 0 0 1-9.681 9.677 28.2 28.2 0 0 1-9.471 1.754c-5.376.247-6.991.3-20.61.3s-15.23-.049-20.6-.3M29.974.309a37.4 37.4 0 0 0-12.379 2.369A25 25 0 0 0 8.56 8.56a24.9 24.9 0 0 0-5.883 9.034 37.4 37.4 0 0 0-2.368 12.38C.058 35.412 0 37.15 0 51s.058 15.588.309 21.026a37.4 37.4 0 0 0 2.369 12.379A24.9 24.9 0 0 0 8.56 93.44a25.1 25.1 0 0 0 9.034 5.883 37.4 37.4 0 0 0 12.379 2.369c5.441.247 7.176.309 21.026.309s15.588-.058 21.026-.309a37.4 37.4 0 0 0 12.379-2.369 26.08 26.08 0 0 0 14.918-14.918 37.3 37.3 0 0 0 2.369-12.379c.247-5.442.3-7.176.3-21.026s-.058-15.588-.3-21.026a37.4 37.4 0 0 0-2.369-12.379A25.1 25.1 0 0 0 93.44 8.56a24.96 24.96 0 0 0-9.03-5.883A37.4 37.4 0 0 0 72.03.309C66.593.062 64.854 0 51 0S35.41.058 29.97.309"/><path fill="url(#b)" d="M34 51a17 17 0 1 1 17 17 17 17 0 0 1-17-17m-9.191 0A26.188 26.188 0 1 0 51 24.812 26.187 26.187 0 0 0 24.812 51M72.1 23.774a6.12 6.12 0 1 0 6.122-6.118 6.123 6.123 0 0 0-6.12 6.118M30.4 92.513a28.2 28.2 0 0 1-9.471-1.754 15.85 15.85 0 0 1-5.866-3.815 15.7 15.7 0 0 1-3.815-5.862 28.2 28.2 0 0 1-1.758-9.471c-.247-5.376-.3-6.991-.3-20.61s.053-15.23.3-20.61a28.4 28.4 0 0 1 1.754-9.471 15.85 15.85 0 0 1 3.815-5.866 15.7 15.7 0 0 1 5.866-3.815A28.2 28.2 0 0 1 30.4 9.484c5.376-.247 6.991-.3 20.6-.3s15.23.053 20.61.3a28.4 28.4 0 0 1 9.471 1.754 15.8 15.8 0 0 1 5.866 3.815 15.8 15.8 0 0 1 3.815 5.866 28.2 28.2 0 0 1 1.754 9.471c.247 5.38.3 6.991.3 20.61s-.049 15.23-.3 20.61a28.3 28.3 0 0 1-1.754 9.471 16.89 16.89 0 0 1-9.681 9.677 28.2 28.2 0 0 1-9.471 1.754c-5.376.247-6.991.3-20.61.3s-15.23-.049-20.6-.3M29.974.309a37.4 37.4 0 0 0-12.379 2.369A25 25 0 0 0 8.56 8.56a24.9 24.9 0 0 0-5.883 9.034 37.4 37.4 0 0 0-2.368 12.38C.058 35.412 0 37.15 0 51s.058 15.588.309 21.026a37.4 37.4 0 0 0 2.369 12.379A24.9 24.9 0 0 0 8.56 93.44a25.1 25.1 0 0 0 9.034 5.883 37.4 37.4 0 0 0 12.379 2.369c5.441.247 7.176.309 21.026.309s15.588-.058 21.026-.309a37.4 37.4 0 0 0 12.379-2.369 26.08 26.08 0 0 0 14.918-14.918 37.3 37.3 0 0 0 2.369-12.379c.247-5.442.3-7.176.3-21.026s-.058-15.588-.3-21.026a37.4 37.4 0 0 0-2.369-12.379A25.1 25.1 0 0 0 93.44 8.56a24.96 24.96 0 0 0-9.03-5.883A37.4 37.4 0 0 0 72.03.309C66.593.062 64.854 0 51 0S35.41.058 29.97.309"/></svg>