<svg xmlns="http://www.w3.org/2000/svg">
  <symbol id="ph-laptop" viewBox="0 0 256 256"><path d="M216,72V176H40V72A16,16,0,0,1,56,56H200A16,16,0,0,1,216,72Z" opacity="0.2"/><path d="M232,168h-8V72a24,24,0,0,0-24-24H56A24,24,0,0,0,32,72v96H24a8,8,0,0,0-8,8v16a24,24,0,0,0,24,24H216a24,24,0,0,0,24-24V176A8,8,0,0,0,232,168ZM48,72a8,8,0,0,1,8-8H200a8,8,0,0,1,8,8v96H48ZM224,192a8,8,0,0,1-8,8H40a8,8,0,0,1-8-8v-8H224ZM152,88a8,8,0,0,1-8,8H112a8,8,0,0,1,0-16h32A8,8,0,0,1,152,88Z"/></symbol>
  <symbol id="ph-globe-hemisphere-west" viewBox="0 0 256 256"><path d="M213.09,172.48a96,96,0,0,1-80.41,51.41l3.17-16.44a8,8,0,0,0-2-6.95l-19.74-20.33a8,8,0,0,1-1.44-8.69l13.7-30.74a8,8,0,0,1,8.38-4.67l22.82,3.08a8.11,8.11,0,0,1,3.12,1.11ZM116.71,95,129,88.24a7.46,7.46,0,0,0,1.5-1.07l26.91-24.33A8,8,0,0,0,159,53l-10.5-18.81A96.62,96.62,0,0,0,128,32,95.61,95.61,0,0,0,67.78,53.23L56,81.08A8,8,0,0,0,55.88,87l11.5,30.67a8,8,0,0,0,5.81,5l2.69.58L89.2,100a8,8,0,0,1,6.94-4h16.71A7.9,7.9,0,0,0,116.71,95Z" opacity="0.2"/><path d="M128,24A104,104,0,1,0,232,128,104.11,104.11,0,0,0,128,24Zm88,104a87.62,87.62,0,0,1-6.4,32.94l-44.7-27.49a15.92,15.92,0,0,0-6.24-2.23l-22.82-3.08a16.11,16.11,0,0,0-16,7.86h-8.72l-3.8-7.86a15.91,15.91,0,0,0-11-8.67l-8-1.73L96.14,104h16.71a16.06,16.06,0,0,0,7.73-2l12.25-6.76a16.62,16.62,0,0,0,3-2.14l26.91-24.34A15.93,15.93,0,0,0,166,49.1l-.36-.65A88.11,88.11,0,0,1,216,128ZM143.31,41.34,152,56.9,125.09,81.24,112.85,88H96.14a16,16,0,0,0-13.88,8l-8.73,15.23L63.38,84.19,74.32,58.32a87.87,87.87,0,0,1,69-17ZM40,128a87.53,87.53,0,0,1,8.54-37.8l11.34,30.27a16,16,0,0,0,11.62,10l21.43,4.61L96.74,143a16.09,16.09,0,0,0,14.4,9h1.48l-7.23,16.23a16,16,0,0,0,2.86,17.37l.14.14L128,205.94l-1.94,10A88.11,88.11,0,0,1,40,128Zm102.58,86.78,1.13-5.81a16.09,16.09,0,0,0-4-13.9,1.85,1.85,0,0,1-.14-.14L120,174.74,133.7,144l22.82,3.08,45.72,28.12A88.18,88.18,0,0,1,142.58,214.78Z"/></symbol>
  <symbol id="ph-star" viewBox="0 0 256 256"><path d="M229.06,108.79l-48.7,42,14.88,62.79a8.4,8.4,0,0,1-12.52,9.17L128,189.09,73.28,222.74a8.4,8.4,0,0,1-12.52-9.17l14.88-62.79-48.7-42A8.46,8.46,0,0,1,31.73,94L95.64,88.8l24.62-59.6a8.36,8.36,0,0,1,15.48,0l24.62,59.6L224.27,94A8.46,8.46,0,0,1,229.06,108.79Z" opacity="0.2"/><path d="M239.18,97.26A16.38,16.38,0,0,0,224.92,86l-59-4.76L143.14,26.15a16.36,16.36,0,0,0-30.27,0L90.11,81.23,31.08,86a16.46,16.46,0,0,0-9.37,28.86l45,38.83L53,211.75a16.38,16.38,0,0,0,24.5,17.82L128,198.49l50.53,31.08A16.4,16.4,0,0,0,203,211.75l-13.76-58.07,45-38.83A16.43,16.43,0,0,0,239.18,97.26Zm-15.34,5.47-48.7,42a8,8,0,0,0-2.56,7.91l14.88,62.8a.37.37,0,0,1-.17.48c-.18.14-.23.11-.38,0l-54.72-33.65a8,8,0,0,0-8.38,0L69.09,215.94c-.15.09-.19.12-.38,0a.37.37,0,0,1-.17-.48l14.88-62.8a8,8,0,0,0-2.56-7.91l-48.7-42c-.12-.1-.23-.19-.13-.5s.18-.27.33-.29l63.92-5.16A8,8,0,0,0,103,91.86l24.62-59.61c.08-.17.11-.25.35-.25s.27.08.35.25L153,91.86a8,8,0,0,0,6.75,4.92l63.92,5.16c.15,0,.24,0,.33.29S224,102.63,223.84,102.73Z"/></symbol>
  <symbol id="ph-coffee" viewBox="0 0 256 256"><path d="M208,88v48a88,88,0,0,1-51.3,80H83.3A88,88,0,0,1,32,136V88Z" opacity="0.2"/><path d="M80,56V24a8,8,0,0,1,16,0V56a8,8,0,0,1-16,0Zm40,8a8,8,0,0,0,8-8V24a8,8,0,0,0-16,0V56A8,8,0,0,0,120,64Zm32,0a8,8,0,0,0,8-8V24a8,8,0,0,0-16,0V56A8,8,0,0,0,152,64Zm96,56v8a40,40,0,0,1-37.51,39.91,96.59,96.59,0,0,1-27,40.09H208a8,8,0,0,1,0,16H32a8,8,0,0,1,0-16H56.54A96.3,96.3,0,0,1,24,136V88a8,8,0,0,1,8-8H208A40,40,0,0,1,248,120ZM200,96H40v40a80.27,80.27,0,0,0,45.12,72h69.76A80.27,80.27,0,0,0,200,136Zm32,24a24,24,0,0,0-16-22.62V136a95.78,95.78,0,0,1-1.2,15A24,24,0,0,0,232,128Z"/></symbol>
  <symbol id="ph-devices" viewBox="0 0 256 256"><path d="M200,64V80H176a16,16,0,0,0-16,16v80H40a16,16,0,0,1-16-16V64A16,16,0,0,1,40,48H184A16,16,0,0,1,200,64Z" opacity="0.2"/><path d="M224,72H208V64a24,24,0,0,0-24-24H40A24,24,0,0,0,16,64v96a24,24,0,0,0,24,24H152v8a24,24,0,0,0,24,24h48a24,24,0,0,0,24-24V96A24,24,0,0,0,224,72ZM40,168a8,8,0,0,1-8-8V64a8,8,0,0,1,8-8H184a8,8,0,0,1,8,8v8H176a24,24,0,0,0-24,24v72Zm192,24a8,8,0,0,1-8,8H176a8,8,0,0,1-8-8V96a8,8,0,0,1,8-8h48a8,8,0,0,1,8,8Zm-96,16a8,8,0,0,1-8,8H88a8,8,0,0,1,0-16h40A8,8,0,0,1,136,208Zm80-96a8,8,0,0,1-8,8H192a8,8,0,0,1,0-16h16A8,8,0,0,1,216,112Z"/></symbol>
  <symbol id="ph-code-simple" viewBox="0 0 256 256"><path d="M240,128l-72,64H88L16,128,88,64h80Z" opacity="0.2"/><path d="M93.31,70,28,128l65.27,58a8,8,0,1,1-10.62,12l-72-64a8,8,0,0,1,0-12l72-64A8,8,0,1,1,93.31,70Zm152,52-72-64a8,8,0,0,0-10.62,12L228,128l-65.27,58a8,8,0,1,0,10.62,12l72-64a8,8,0,0,0,0-12Z"/></symbol>
  <symbol id="ph-rocket-launch" viewBox="0 0 256 256"><path d="M184,120v61.65a8,8,0,0,1-2.34,5.65l-34.35,34.35a8,8,0,0,1-13.57-4.53L128,176ZM136,72H74.35a8,8,0,0,0-5.65,2.34L34.35,108.69a8,8,0,0,0,4.53,13.57L80,128ZM40,216c37.65,0,50.69-19.69,54.56-28.18L68.18,161.44C59.69,165.31,40,178.35,40,216Z" opacity="0.2"/><path d="M223.85,47.12a16,16,0,0,0-15-15c-12.58-.75-44.73.4-71.41,27.07L132.69,64H74.36A15.91,15.91,0,0,0,63,68.68L28.7,103a16,16,0,0,0,9.07,27.16l38.47,5.37,44.21,44.21,5.37,38.49a15.94,15.94,0,0,0,10.78,12.92,16.11,16.11,0,0,0,5.1.83A15.91,15.91,0,0,0,153,227.3L187.32,193A15.91,15.91,0,0,0,192,181.64V123.31l4.77-4.77C223.45,91.86,224.6,59.71,223.85,47.12ZM74.36,80h42.33L77.16,119.52,40,114.34Zm74.41-9.45a76.65,76.65,0,0,1,59.11-22.47,76.46,76.46,0,0,1-22.42,59.16L128,164.68,91.32,128ZM176,181.64,141.67,216l-5.19-37.17L176,139.31Zm-74.16,9.5C97.34,201,82.29,224,40,224a8,8,0,0,1-8-8c0-42.29,23-57.34,32.86-61.85a8,8,0,0,1,6.64,14.56c-6.43,2.93-20.62,12.36-23.12,38.91,26.55-2.5,36-16.69,38.91-23.12a8,8,0,1,1,14.56,6.64Z"/></symbol>
  <symbol id="ph-magnifying-glass-plus" viewBox="0 0 256 256"><path d="M192,112a80,80,0,1,1-80-80A80,80,0,0,1,192,112Z" opacity="0.2"/><path d="M229.66,218.34,179.6,168.28a88.21,88.21,0,1,0-11.32,11.31l50.06,50.07a8,8,0,0,0,11.32-11.32ZM40,112a72,72,0,1,1,72,72A72.08,72.08,0,0,1,40,112Zm112,0a8,8,0,0,1-8,8H120v24a8,8,0,0,1-16,0V120H80a8,8,0,0,1,0-16h24V80a8,8,0,0,1,16,0v24h24A8,8,0,0,1,152,112Z"/></symbol>
  <symbol id="ph-chalkboard-teacher" viewBox="0 0 256 256"><path d="M192,80v96H104a32,32,0,1,0-32-32H64V80Z" opacity="0.2"/><path d="M216,40H40A16,16,0,0,0,24,56V200a16,16,0,0,0,16,16H53.39a8,8,0,0,0,7.23-4.57,48,48,0,0,1,86.76,0,8,8,0,0,0,7.23,4.57H216a16,16,0,0,0,16-16V56A16,16,0,0,0,216,40ZM80,144a24,24,0,1,1,24,24A24,24,0,0,1,80,144Zm136,56H159.43a64.39,64.39,0,0,0-28.83-26.16,40,40,0,1,0-53.2,0A64.39,64.39,0,0,0,48.57,200H40V56H216ZM56,96V80a8,8,0,0,1,8-8H192a8,8,0,0,1,8,8v96a8,8,0,0,1-8,8H176a8,8,0,0,1,0-16h8V88H72v8a8,8,0,0,1-16,0Z"/></symbol>
  <symbol id="ph-users-three" viewBox="0 0 256 256"><path d="M168,144a40,40,0,1,1-40-40A40,40,0,0,1,168,144ZM64,56A32,32,0,1,0,96,88,32,32,0,0,0,64,56Zm128,0a32,32,0,1,0,32,32A32,32,0,0,0,192,56Z" opacity="0.2"/><path d="M244.8,150.4a8,8,0,0,1-11.2-1.6A51.6,51.6,0,0,0,192,128a8,8,0,0,1,0-16,24,24,0,1,0-23.24-30,8,8,0,1,1-15.5-4A40,40,0,1,1,219,117.51a67.94,67.94,0,0,1,27.43,21.68A8,8,0,0,1,244.8,150.4ZM190.92,212a8,8,0,1,1-13.85,8,57,57,0,0,0-98.15,0,8,8,0,1,1-13.84-8,72.06,72.06,0,0,1,33.74-29.92,48,48,0,1,1,58.36,0A72.06,72.06,0,0,1,190.92,212ZM128,176a32,32,0,1,0-32-32A32,32,0,0,0,128,176ZM72,120a8,8,0,0,0-8-8A24,24,0,1,1,87.24,82a8,8,0,1,0,15.5-4A40,40,0,1,0,37,117.51,67.94,67.94,0,0,0,9.6,139.19a8,8,0,1,0,12.8,9.61A51.6,51.6,0,0,1,64,128,8,8,0,0,0,72,120Z"/></symbol>
  <symbol id="ph-screencast" viewBox="0 0 256 256"><path d="M224,56V200a8,8,0,0,1-8,8H48a16,16,0,0,0-16-16V56a8,8,0,0,1,8-8H216A8,8,0,0,1,224,56Z" opacity="0.2"/><path d="M232,56V200a16,16,0,0,1-16,16H144a8,8,0,0,1,0-16h72V56H40V96a8,8,0,0,1-16,0V56A16,16,0,0,1,40,40H216A16,16,0,0,1,232,56ZM32,184a8,8,0,0,0,0,16,8,8,0,0,1,8,8,8,8,0,0,0,16,0A24,24,0,0,0,32,184Zm0-32a8,8,0,0,0,0,16,40,40,0,0,1,40,40,8,8,0,0,0,16,0A56.06,56.06,0,0,0,32,152Zm0-32a8,8,0,0,0,0,16,72.08,72.08,0,0,1,72,72,8,8,0,0,0,16,0A88.1,88.1,0,0,0,32,120Z"/></symbol>
  <symbol id="ph-arrow-fat-up" viewBox="0 0 256 256"><path d="M224,120H176v88a8,8,0,0,1-8,8H88a8,8,0,0,1-8-8V120H32l96-96Z" opacity="0.2"/><path d="M229.66,114.34l-96-96a8,8,0,0,0-11.32,0l-96,96A8,8,0,0,0,32,128H72v80a16,16,0,0,0,16,16h80a16,16,0,0,0,16-16V128h40a8,8,0,0,0,5.66-13.66ZM176,112a8,8,0,0,0-8,8v88H88V120a8,8,0,0,0-8-8H51.31L128,35.31,204.69,112Z"/></symbol>
  <symbol id="ph-arrow-fat-down" viewBox="0 0 256 256"><path d="M224,136l-96,96L32,136H80V48a8,8,0,0,1,8-8h80a8,8,0,0,1,8,8v88Z" opacity="0.2"/><path d="M231.39,132.94A8,8,0,0,0,224,128H184V48a16,16,0,0,0-16-16H88A16,16,0,0,0,72,48v80H32a8,8,0,0,0-5.66,13.66l96,96a8,8,0,0,0,11.32,0l96-96A8,8,0,0,0,231.39,132.94ZM128,220.69,51.31,144H80a8,8,0,0,0,8-8V48h80v88a8,8,0,0,0,8,8h28.69Z"/></symbol>
  <symbol id="ph-arrow-clockwise" viewBox="0 0 256 256"><path d="M216,128a88,88,0,1,1-88-88A88,88,0,0,1,216,128Z" opacity="0.2"/><path d="M240,56v48a8,8,0,0,1-8,8H184a8,8,0,0,1,0-16H211.4L184.81,71.64l-.25-.24a80,80,0,1,0-1.67,114.78,8,8,0,0,1,11,11.63A95.44,95.44,0,0,1,128,224h-1.32A96,96,0,1,1,195.75,60L224,85.8V56a8,8,0,1,1,16,0Z"/></symbol>
</svg>